<svg width="145" height="66" viewBox="0 0 145 66" fill="none" xmlns="http://www.w3.org/2000/svg">
<path d="M1.37109 30.6367V18.7891C1.37109 17.7578 1.71094 16.668 2.39062 15.5195C3.70312 13.293 5.69531 12.1914 8.36719 12.2148V15.2383C7.24219 15.2617 6.29297 15.6602 5.51953 16.4336C4.81641 17.1836 4.46484 17.9688 4.46484 18.7891V30.6367C4.46484 31.0352 4.59375 31.4922 4.85156 32.0078C5.57812 33.4375 6.75 34.1523 8.36719 34.1523V37.1758C6.07031 37.1523 4.24219 36.2969 2.88281 34.6094C1.875 33.3203 1.37109 31.9961 1.37109 30.6367ZM10.0898 37.1758V34.1523L10.793 34.0469C11.2617 33.9766 11.7773 33.7305 12.3398 33.3086C12.9258 32.8867 13.3242 32.3359 13.5352 31.6562C13.6289 31.3984 13.6992 31 13.7461 30.4609C13.7695 30.3438 13.7812 30.1562 13.7812 29.8984L16.6992 30.6016C16.6992 32.2656 16.1016 33.7422 14.9062 35.0312C13.5703 36.4609 11.9648 37.1758 10.0898 37.1758ZM10.0898 15.2383V12.2148C11.6602 12.2148 13.125 12.8359 14.4844 14.0781C15.9609 15.4844 16.6992 17.0781 16.6992 18.8594L13.7461 19.6328V19.0703C13.6992 18.6016 13.6289 18.2266 13.5352 17.9453C13.0898 16.7969 12.2812 15.9766 11.1094 15.4844C10.4297 15.3203 10.0898 15.2383 10.0898 15.2383ZM19.4062 15.3789C19.4062 14.6523 19.7461 14.1367 20.4258 13.832C20.6602 13.7383 20.8945 13.6914 21.1289 13.6914C21.832 13.6914 22.3477 14.0195 22.6758 14.6758C22.7695 14.9102 22.8164 15.1445 22.8164 15.3789C22.8164 16.082 22.4883 16.5977 21.832 16.9258C21.5977 17.0195 21.3633 17.0664 21.1289 17.0664C20.4023 17.0664 19.875 16.7383 19.5469 16.082C19.4531 15.8477 19.4062 15.6133 19.4062 15.3789ZM19.6523 37V18.4727H22.6055V37H19.6523ZM25.0312 21.0391V18.1914H27.3516V12.1094H30.3398V18.1914H32.5898V21.0742H30.3398V31.1641C30.3398 32.8281 31.0195 33.7539 32.3789 33.9414C32.6367 33.9883 32.8945 34.0117 33.1523 34.0117H33.6445L34.3125 37H33.0469C30.1641 36.9766 28.3945 35.8984 27.7383 33.7656C27.5039 32.9688 27.3867 31.9844 27.3867 30.8125L27.3516 21.0391H25.0312ZM34.6641 17.9805H37.793L43.1367 32.8516L39.5156 43.6797H36.5273L39.9727 32.8164L34.6641 17.9805ZM42.4336 26.1367L45.6328 17.9805H48.7266L44.0508 30.25H43.7344L42.4336 26.1367ZM49.7109 31.4453L52.5234 30.4609C52.6641 31.4453 53.0391 32.2539 53.6484 32.8867C54.2812 33.5195 54.8789 33.9062 55.4414 34.0469L56.25 34.2578V37.1055C54.1875 37.1055 52.4531 36.2266 51.0469 34.4688C50.1797 33.3672 49.7344 32.3594 49.7109 31.4453ZM49.9922 19.0352C49.9922 16.5039 51.082 14.6055 53.2617 13.3398C54.3398 12.707 55.3359 12.3906 56.25 12.3906V15.2734C55.4297 15.3672 54.6562 15.8008 53.9297 16.5742C53.2734 17.3008 52.9453 18.1328 52.9453 19.0703C52.9453 20.5 53.9766 21.5781 56.0391 22.3047C56.5547 22.4688 57.3398 22.6914 58.3945 22.9727C59.4961 23.2773 60.2695 23.5117 60.7148 23.6758C62.8242 24.543 64.1719 25.7266 64.7578 27.2266C65.0625 27.9766 65.2148 28.8203 65.2148 29.7578C65.2148 31.7969 64.4297 33.5664 62.8594 35.0664C61.4297 36.4258 59.8125 37.1055 58.0078 37.1055V34.2578C58.9688 34.2109 59.8945 33.7539 60.7852 32.8867C61.6758 31.9727 62.1328 30.9297 62.1562 29.7578C62.1562 28.1172 61.0195 26.9219 58.7461 26.1719C58.2539 26.0078 57.5039 25.8086 56.4961 25.5742C55.418 25.3164 54.6914 25.1055 54.3164 24.9414C52.3242 24.1211 51.0469 23.043 50.4844 21.707C50.1562 20.9336 49.9922 20.043 49.9922 19.0352ZM58.0078 15.2734V12.3906C60.0469 12.3906 61.7461 13.293 63.1055 15.0977C63.7852 16.0117 64.1602 16.832 64.2305 17.5586L61.3828 18.5078C61.0547 16.8672 60.1172 15.8242 58.5703 15.3789C58.1953 15.3086 58.0078 15.2734 58.0078 15.2734ZM67.5703 37V12.1797H70.5938V37H67.5703ZM71.4727 27.4727L78.6445 18.0156H82.1953L74.9531 27.4727L82.2305 37H78.7148L71.4727 27.4727ZM83.1094 17.9805H86.2383L91.582 32.8516L87.9609 43.6797H84.9727L88.418 32.8164L83.1094 17.9805ZM90.8789 26.1367L94.0781 17.9805H97.1719L92.4961 30.25H92.1797L90.8789 26.1367ZM98.7539 37V12.1797H101.883V37H98.7539ZM104.977 15.3789C104.977 14.6523 105.316 14.1367 105.996 13.832C106.23 13.7383 106.465 13.6914 106.699 13.6914C107.402 13.6914 107.918 14.0195 108.246 14.6758C108.34 14.9102 108.387 15.1445 108.387 15.3789C108.387 16.082 108.059 16.5977 107.402 16.9258C107.168 17.0195 106.934 17.0664 106.699 17.0664C105.973 17.0664 105.445 16.7383 105.117 16.082C105.023 15.8477 104.977 15.6133 104.977 15.3789ZM105.223 37V18.4727H108.176V37H105.223ZM111.34 37V23.1133C111.34 21.9883 111.844 20.8867 112.852 19.8086C114.094 18.543 115.629 17.9102 117.457 17.9102V20.8281C116.262 20.8281 115.348 21.2969 114.715 22.2344C114.457 22.6328 114.328 23.043 114.328 23.4648V37H111.34ZM119.004 20.8281V17.9102C121.184 17.9102 122.883 18.7891 124.102 20.5469C124.758 21.4609 125.086 22.3164 125.086 23.1133V37H122.098V23.4648C122.098 22.7383 121.734 22.0938 121.008 21.5312C120.422 21.0625 119.754 20.8281 119.004 20.8281ZM127.793 31.7969V23.0781C127.816 22 128.332 20.9336 129.34 19.8789C130.559 18.6367 132.035 18.0039 133.77 17.9805V20.7578C132.645 20.7578 131.766 21.25 131.133 22.2344C130.875 22.6562 130.746 23.043 130.746 23.3945V25.7852H138.621V23.3945C138.621 22.3398 138.082 21.5664 137.004 21.0742C136.512 20.8398 136.008 20.7227 135.492 20.7227V17.9805C137.109 17.9805 138.551 18.5547 139.816 19.7031C140.871 20.7109 141.41 21.8242 141.434 23.043V28.6328H130.746V31.7969C130.746 32.4531 131.121 33.0625 131.871 33.625C132.48 34.0469 133.125 34.2578 133.805 34.2578V37C131.672 37 129.996 36.1328 128.777 34.3984C128.121 33.4844 127.793 32.6172 127.793 31.7969ZM135.492 37V34.2227C136.898 34.2227 137.953 33.6133 138.656 32.3945C138.797 32.1367 138.902 31.8906 138.973 31.6562L141.469 32.5703C141.047 34.1875 140.086 35.4062 138.586 36.2266C137.625 36.7422 136.594 37 135.492 37Z" fill="white"/>
<path d="M2.892 58.584L0.348 54.48H1.308L3.612 58.26H5.208V54.48H6.132V58.26H7.728L10.02 54.48H10.992L8.436 58.584L11.304 63H10.332L7.848 59.004H6.132V63H5.208V59.004H3.492L1.008 63H0.036L2.892 58.584ZM14.7038 61.74L19.9838 54.48H20.6798V63H19.8398V55.86L14.6438 63H13.8758V54.48H14.7038V61.74ZM26.2123 56.736C26.1163 57.864 25.9923 58.828 25.8403 59.628C25.6963 60.428 25.5123 61.084 25.2883 61.596C25.0723 62.1 24.8083 62.472 24.4963 62.712C24.1923 62.944 23.8323 63.06 23.4163 63.06L23.2723 62.256C23.4323 62.248 23.5843 62.216 23.7283 62.16C23.8803 62.104 24.0243 62.004 24.1603 61.86C24.2963 61.708 24.4243 61.504 24.5443 61.248C24.6643 60.984 24.7763 60.648 24.8803 60.24C24.9843 59.824 25.0763 59.324 25.1563 58.74C25.2443 58.156 25.3203 57.464 25.3843 56.664L25.5643 54.48H29.8963V63H29.0683V55.224H26.3323L26.2123 56.736ZM36.957 63.06C36.365 63.06 35.821 62.94 35.325 62.7C34.837 62.452 34.417 62.128 34.065 61.728C33.713 61.32 33.441 60.856 33.249 60.336C33.057 59.816 32.961 59.284 32.961 58.74C32.961 58.172 33.061 57.628 33.261 57.108C33.469 56.588 33.753 56.128 34.113 55.728C34.473 55.328 34.897 55.012 35.385 54.78C35.873 54.54 36.401 54.42 36.969 54.42C37.561 54.42 38.101 54.548 38.589 54.804C39.085 55.052 39.505 55.38 39.849 55.788C40.201 56.196 40.473 56.66 40.665 57.18C40.857 57.692 40.953 58.216 40.953 58.752C40.953 59.32 40.849 59.864 40.641 60.384C40.441 60.904 40.161 61.364 39.801 61.764C39.449 62.156 39.029 62.472 38.541 62.712C38.053 62.944 37.525 63.06 36.957 63.06ZM33.801 58.74C33.801 59.204 33.877 59.652 34.029 60.084C34.181 60.508 34.397 60.888 34.677 61.224C34.957 61.552 35.289 61.816 35.673 62.016C36.057 62.208 36.485 62.304 36.957 62.304C37.437 62.304 37.873 62.2 38.265 61.992C38.657 61.784 38.989 61.512 39.261 61.176C39.533 60.84 39.741 60.46 39.885 60.036C40.037 59.612 40.113 59.18 40.113 58.74C40.113 58.276 40.033 57.832 39.873 57.408C39.721 56.976 39.505 56.596 39.225 56.268C38.945 55.94 38.613 55.68 38.229 55.488C37.845 55.288 37.421 55.188 36.957 55.188C36.477 55.188 36.041 55.292 35.649 55.5C35.257 55.7 34.925 55.968 34.653 56.304C34.381 56.64 34.169 57.02 34.017 57.444C33.873 57.868 33.801 58.3 33.801 58.74ZM49.2567 52.008C49.2407 52.392 49.0767 52.7 48.7647 52.932C48.4607 53.156 48.0367 53.268 47.4927 53.268C46.9487 53.268 46.5207 53.156 46.2087 52.932C45.9047 52.7 45.7447 52.392 45.7287 52.008H46.2447C46.2447 52.112 46.2767 52.212 46.3407 52.308C46.4047 52.404 46.4927 52.488 46.6047 52.56C46.7167 52.632 46.8487 52.692 47.0007 52.74C47.1527 52.78 47.3207 52.8 47.5047 52.8C47.8487 52.8 48.1327 52.728 48.3567 52.584C48.5887 52.432 48.7207 52.24 48.7527 52.008H49.2567ZM44.8167 61.74L50.0967 54.48H50.7927V63H49.9527V55.86L44.7567 63H43.9887V54.48H44.8167V61.74ZM59.7319 58.26H61.0279L63.8119 54.48H64.7719L61.7839 58.584L65.0839 63H64.1239L61.0999 59.004H59.7319V63H58.9039V54.48H59.7319V58.26ZM70.6545 63.06C70.0625 63.06 69.5185 62.94 69.0225 62.7C68.5345 62.452 68.1145 62.128 67.7625 61.728C67.4105 61.32 67.1385 60.856 66.9465 60.336C66.7545 59.816 66.6585 59.284 66.6585 58.74C66.6585 58.172 66.7585 57.628 66.9585 57.108C67.1665 56.588 67.4505 56.128 67.8105 55.728C68.1705 55.328 68.5945 55.012 69.0825 54.78C69.5705 54.54 70.0985 54.42 70.6665 54.42C71.2585 54.42 71.7985 54.548 72.2865 54.804C72.7825 55.052 73.2025 55.38 73.5465 55.788C73.8985 56.196 74.1705 56.66 74.3625 57.18C74.5545 57.692 74.6505 58.216 74.6505 58.752C74.6505 59.32 74.5465 59.864 74.3385 60.384C74.1385 60.904 73.8585 61.364 73.4985 61.764C73.1465 62.156 72.7265 62.472 72.2385 62.712C71.7505 62.944 71.2225 63.06 70.6545 63.06ZM67.4985 58.74C67.4985 59.204 67.5745 59.652 67.7265 60.084C67.8785 60.508 68.0945 60.888 68.3745 61.224C68.6545 61.552 68.9865 61.816 69.3705 62.016C69.7545 62.208 70.1825 62.304 70.6545 62.304C71.1345 62.304 71.5705 62.2 71.9625 61.992C72.3545 61.784 72.6865 61.512 72.9585 61.176C73.2305 60.84 73.4385 60.46 73.5825 60.036C73.7345 59.612 73.8105 59.18 73.8105 58.74C73.8105 58.276 73.7305 57.832 73.5705 57.408C73.4185 56.976 73.2025 56.596 72.9225 56.268C72.6425 55.94 72.3105 55.68 71.9265 55.488C71.5425 55.288 71.1185 55.188 70.6545 55.188C70.1745 55.188 69.7385 55.292 69.3465 55.5C68.9545 55.7 68.6225 55.968 68.3505 56.304C68.0785 56.64 67.8665 57.02 67.7145 57.444C67.5705 57.868 67.4985 58.3 67.4985 58.74ZM85.2222 63V56.004L82.1142 61.416H81.6222L78.5142 56.004V63H77.6742V54.48H78.5382L81.8622 60.312L85.2102 54.48H86.0622V63H85.2222ZM89.6848 54.48H96.2608V63H95.4208V55.224H90.5128V63H89.6848V54.48ZM101.787 56.736C101.691 57.864 101.567 58.828 101.415 59.628C101.271 60.428 101.087 61.084 100.863 61.596C100.647 62.1 100.383 62.472 100.071 62.712C99.767 62.944 99.407 63.06 98.991 63.06L98.847 62.256C99.007 62.248 99.159 62.216 99.303 62.16C99.455 62.104 99.599 62.004 99.735 61.86C99.871 61.708 99.999 61.504 100.119 61.248C100.239 60.984 100.351 60.648 100.455 60.24C100.559 59.824 100.651 59.324 100.731 58.74C100.819 58.156 100.895 57.464 100.959 56.664L101.139 54.48H105.471V63H104.643V55.224H101.907L101.787 56.736ZM114.824 62.256V63H109.1V54.48H114.716V55.224H109.94V58.296H114.104V59.004H109.94V62.256H114.824ZM118.692 58.26H119.988L122.772 54.48H123.732L120.744 58.584L124.044 63H123.084L120.06 59.004H118.692V63H117.864V54.48H118.692V58.26ZM125.607 58.68C125.607 58.168 125.695 57.66 125.871 57.156C126.055 56.644 126.319 56.188 126.663 55.788C127.007 55.388 127.431 55.064 127.935 54.816C128.439 54.56 129.011 54.432 129.651 54.432C130.411 54.432 131.059 54.604 131.595 54.948C132.139 55.292 132.539 55.74 132.795 56.292L132.135 56.7C131.999 56.42 131.831 56.184 131.631 55.992C131.439 55.8 131.231 55.644 131.007 55.524C130.783 55.404 130.551 55.32 130.311 55.272C130.071 55.216 129.835 55.188 129.603 55.188C129.091 55.188 128.639 55.292 128.247 55.5C127.855 55.708 127.523 55.98 127.251 56.316C126.987 56.652 126.787 57.032 126.651 57.456C126.515 57.872 126.447 58.296 126.447 58.728C126.447 59.2 126.527 59.652 126.687 60.084C126.855 60.516 127.079 60.9 127.359 61.236C127.647 61.564 127.983 61.828 128.367 62.028C128.759 62.22 129.183 62.316 129.639 62.316C129.879 62.316 130.123 62.288 130.371 62.232C130.627 62.168 130.871 62.072 131.103 61.944C131.343 61.808 131.563 61.644 131.763 61.452C131.963 61.252 132.131 61.012 132.267 60.732L132.963 61.092C132.827 61.412 132.635 61.696 132.387 61.944C132.139 62.184 131.863 62.388 131.559 62.556C131.255 62.724 130.931 62.852 130.587 62.94C130.251 63.028 129.919 63.072 129.591 63.072C129.007 63.072 128.471 62.944 127.983 62.688C127.495 62.432 127.075 62.1 126.723 61.692C126.371 61.276 126.095 60.808 125.895 60.288C125.703 59.76 125.607 59.224 125.607 58.68Z" fill="white"/>
</svg>
